<?xml version="1.0" standalone="no"?>
<!DOCTYPE svg PUBLIC "-//W3C//DTD SVG 20010904//EN"
 "http://www.w3.org/TR/2001/REC-SVG-20010904/DTD/svg10.dtd">
<svg version="1.0" xmlns="http://www.w3.org/2000/svg"
 width="640.000000pt" height="480.000000pt" viewBox="0 0 640.000000 480.000000"
 preserveAspectRatio="xMidYMid meet">

<g transform="translate(0.000000,480.000000) scale(0.100000,-0.100000)"
fill="#000000" stroke="none">
<path d="M0 2400 l0 -2400 1104 0 1104 0 -8 36 c-5 21 -13 40 -18 43 -12 8
-24 103 -28 226 -2 55 -6 143 -10 196 -7 106 7 214 37 292 11 26 19 61 19 78
0 16 8 44 17 62 9 18 18 37 19 44 1 6 6 18 11 27 7 13 13 7 31 -32 12 -27 32
-58 44 -68 21 -19 21 -19 16 3 -3 12 -1 24 6 26 7 3 4 12 -9 26 -14 17 -16 24
-7 30 9 5 7 12 -8 26 -11 10 -20 23 -20 30 0 13 -65 76 -90 87 -9 4 -10 7 -2
7 14 1 17 31 2 31 -5 0 -10 4 -10 9 0 4 -16 25 -35 45 -19 21 -33 41 -30 46 2
4 -11 25 -31 45 -25 27 -34 44 -30 59 3 11 0 26 -6 33 -7 9 -7 13 1 13 7 0 0
11 -14 24 -16 15 -22 27 -15 31 15 10 12 23 -8 28 -16 4 -16 5 0 6 12 1 15 6
11 17 -5 14 -3 15 14 6 15 -8 23 -8 33 1 10 10 12 8 7 -10 -4 -17 -1 -23 11
-23 15 0 15 -2 2 -10 -13 -8 -13 -11 -1 -19 7 -5 14 -19 15 -32 1 -14 7 -24
16 -24 26 0 30 -19 8 -42 -12 -13 -17 -23 -12 -23 5 0 15 9 22 20 7 12 17 18
21 15 5 -2 12 3 15 12 6 15 8 15 16 3 6 -8 10 -10 10 -4 0 5 7 19 15 30 14 18
14 17 5 -9 -13 -36 -13 -36 5 -33 9 1 22 12 31 24 23 34 47 18 39 -28 -4 -26
-2 -42 8 -51 7 -8 16 -21 20 -29 3 -10 6 -11 6 -2 1 8 9 10 26 6 16 -4 25 -2
25 6 0 7 -7 10 -16 6 -12 -5 -15 -2 -10 9 3 9 2 13 -3 10 -5 -3 -13 0 -17 6
-5 8 -9 7 -15 -2 -4 -8 -7 1 -5 23 4 43 12 58 33 58 10 0 13 -6 9 -16 -3 -8
-2 -12 4 -9 6 3 10 14 11 23 0 9 5 2 11 -17 7 -24 6 -36 -2 -41 -9 -6 -9 -13
1 -31 7 -13 12 -27 11 -31 -1 -5 4 -8 12 -8 17 0 28 24 17 36 -20 22 -29 72
-17 89 12 16 13 16 29 0 16 -15 17 -15 17 11 0 24 2 26 13 12 18 -22 51 -32
43 -13 -8 21 11 19 23 -2 7 -13 10 -14 11 -4 0 11 4 10 19 -3 18 -16 19 -16
17 1 0 11 5 18 17 17 18 -2 22 6 10 22 -5 5 -1 3 7 -6 20 -20 56 -24 39 -4
-10 12 -9 13 6 8 13 -5 16 -4 10 5 -6 10 -3 11 12 2 11 -6 23 -7 27 -4 3 3 6
0 6 -8 1 -10 4 -9 11 4 5 9 8 21 5 25 -3 5 1 9 9 9 8 0 12 -4 9 -8 -2 -4 0
-10 6 -14 5 -3 10 -15 10 -27 0 -28 30 -89 41 -82 16 9 47 -6 52 -26 3 -11 11
-20 17 -20 9 0 10 3 1 14 -14 17 -3 49 15 42 8 -3 21 -9 29 -12 8 -3 15 -1 15
5 0 6 -7 11 -15 11 -23 0 -18 14 11 27 15 7 24 10 20 6 -6 -6 73 -47 86 -45
18 4 13 -27 -7 -38 -13 -7 -21 -18 -19 -24 2 -6 -5 -12 -17 -13 -12 -1 -25 -6
-28 -12 -3 -5 -22 -9 -41 -10 -32 0 -71 -6 -77 -11 -10 -8 -30 -3 -40 10 -11
13 -12 13 -13 0 0 -10 -3 -11 -8 -4 -11 17 -35 22 -58 13 -14 -5 -29 -2 -42 7
-19 13 -21 12 -27 -6 -13 -40 14 -105 28 -67 2 6 8 -4 12 -24 5 -28 11 -36 24
-32 16 4 31 -15 44 -57 4 -9 6 -6 6 8 1 21 21 33 21 12 0 -5 5 -10 11 -10 6 0
9 7 6 14 -4 10 -1 13 8 10 7 -3 18 -18 23 -32 5 -15 21 -40 36 -55 14 -15 26
-37 26 -48 0 -11 6 -22 14 -25 20 -8 50 -126 42 -165 -5 -29 -53 -97 -96 -139
-31 -30 -50 -80 -55 -140 -2 -34 -9 -68 -16 -76 -9 -11 -7 -14 9 -14 12 0 24
5 27 10 3 5 16 10 29 10 13 0 35 13 49 30 32 36 72 40 80 9 3 -12 10 -18 16
-15 15 9 5 -98 -12 -132 -8 -15 -17 -39 -21 -55 -3 -15 -11 -27 -16 -27 -11 0
-14 -63 -3 -73 3 -4 12 -2 20 4 15 13 17 1 4 -20 -8 -12 -12 -12 -25 -2 -20
17 -21 4 -1 -15 9 -9 23 -13 35 -9 13 4 22 1 26 -9 3 -9 11 -13 17 -9 33 20
74 1 69 -33 -1 -6 7 -19 18 -29 11 -10 20 -29 20 -42 0 -16 6 -23 20 -23 11 0
20 4 20 9 0 5 25 15 55 22 30 7 60 18 66 26 6 7 24 13 40 13 15 0 34 7 43 15
8 8 19 15 24 15 4 0 19 11 32 24 27 29 75 43 94 27 11 -9 18 -8 29 4 9 8 21
15 27 15 6 0 8 5 4 11 -5 9 13 10 67 5 l74 -6 -28 25 c-15 14 -40 28 -55 31
-15 4 -33 14 -40 23 -10 12 -27 15 -75 13 -61 -3 -84 -11 -59 -19 6 -3 10 -8
7 -13 -2 -4 4 -15 15 -25 28 -25 25 -35 -5 -22 -14 7 -25 17 -25 23 0 6 -11
21 -25 34 -14 13 -25 18 -25 11 0 -7 -15 -1 -37 13 -43 30 -57 26 -22 -5 l24
-21 -25 7 c-14 4 -34 16 -46 26 -25 23 -35 24 -28 4 12 -30 -14 -14 -68 43
-65 67 -96 121 -78 132 15 9 -20 142 -44 166 -9 8 -16 24 -16 35 0 25 -18 60
-38 75 -11 8 -16 31 -16 77 -1 36 -4 60 -8 54 -6 -9 -8 -9 -8 0 0 6 5 15 11
19 6 3 9 15 6 25 -5 18 26 113 43 134 12 14 40 96 40 117 0 9 3 18 8 20 16 7
51 68 55 94 3 20 9 29 23 29 12 0 20 8 22 23 2 12 8 22 13 22 17 0 49 34 49
53 0 14 -5 17 -22 12 -17 -6 -20 -4 -15 9 4 9 3 16 -2 16 -11 0 -22 40 -15 52
3 4 13 4 22 -1 14 -7 18 -5 18 9 0 10 -4 16 -9 13 -11 -6 1 37 15 53 5 7 19 9
31 6 19 -5 20 -3 9 10 -10 13 -8 23 14 61 14 26 37 59 52 75 66 72 66 71 52
87 -10 13 -9 15 9 15 15 0 22 6 20 18 -1 9 4 31 11 47 7 17 13 44 13 62 1 17
5 29 9 26 5 -2 6 17 3 43 -5 39 -3 45 9 35 11 -9 14 -6 18 19 2 16 0 31 -5 33
-6 2 -11 22 -13 46 -2 33 -10 49 -36 74 -64 62 -122 86 -158 67 -17 -9 -18
-14 -9 -31 6 -11 12 -30 14 -41 3 -12 19 -34 37 -49 31 -27 32 -28 10 -29 -13
0 -21 4 -18 9 3 5 -4 9 -17 8 -12 0 -30 3 -39 7 -11 5 -18 4 -18 -3 0 -6 19
-19 43 -29 l42 -17 -40 -5 c-26 -4 -44 -1 -51 7 -6 7 -14 10 -18 6 -4 -4 8
-19 26 -34 l32 -28 -27 -6 c-15 -4 -35 -4 -44 0 -17 8 -17 8 0 12 14 4 16 8 6
19 -12 15 -49 19 -49 6 0 -4 6 -14 13 -21 10 -10 9 -11 -6 -5 -13 5 -16 2 -11
-10 4 -10 12 -15 19 -12 7 2 21 -2 32 -9 17 -14 17 -14 -2 -16 -11 -1 -26 -1
-32 0 -7 1 -13 -7 -13 -19 0 -18 -16 -26 -44 -21 -5 1 -6 -5 -3 -13 3 -8 -1
-17 -9 -20 -8 -3 -14 -2 -14 2 0 7 -74 52 -84 52 -2 0 -3 -7 -3 -15 0 -8 4
-12 9 -9 5 3 8 2 7 -3 -3 -19 2 -25 14 -14 11 8 19 5 36 -13 18 -19 19 -24 7
-29 -8 -3 -20 1 -26 9 -7 8 -17 14 -23 14 -5 0 -2 -9 8 -20 11 -12 13 -20 6
-20 -6 0 -17 12 -24 28 -13 29 -36 52 -52 51 -5 0 -4 -3 3 -6 13 -5 17 -24 5
-22 -22 4 -33 -2 -26 -13 4 -7 -5 -5 -20 4 -32 22 -44 23 -27 3 7 -9 11 -18 8
-20 -3 -3 -11 2 -18 10 -17 21 3 46 22 27 17 -17 33 -15 18 3 -7 8 -19 15 -27
15 -8 0 -12 4 -9 8 2 4 -4 9 -15 9 -11 1 -17 -2 -14 -8 4 -5 1 -9 -4 -9 -6 0
-11 6 -11 13 0 9 -2 9 -8 0 -6 -10 -17 -7 -42 12 -24 18 -37 22 -46 14 -8 -7
-14 -6 -20 2 -4 8 -3 9 4 5 7 -4 12 -2 12 3 0 6 -4 11 -10 11 -5 0 -10 5 -10
11 0 5 5 7 12 3 7 -4 8 -3 4 5 -4 6 -12 9 -17 6 -5 -4 -9 -3 -9 2 0 4 -12 17
-27 27 -16 12 -23 14 -18 5 4 -8 -8 1 -28 20 -20 19 -34 38 -31 42 2 4 -1 11
-7 15 -8 4 -9 3 -5 -4 4 -7 2 -12 -3 -12 -6 0 -11 4 -11 9 0 5 -10 11 -22 14
-21 5 -21 5 -5 -7 9 -7 17 -16 17 -19 0 -3 -8 -3 -17 0 -10 2 -27 27 -38 56
-13 32 -29 56 -44 64 -14 6 -31 24 -38 40 l-14 28 23 -27 c28 -33 43 -37 28
-8 -7 12 -7 20 -1 20 13 0 9 49 -4 58 -6 4 -11 14 -13 22 -1 10 3 9 14 -5 16
-19 16 -19 10 9 -7 27 -6 28 11 16 12 -9 10 -6 -4 10 -15 17 -19 30 -13 40 5
7 7 26 5 42 -2 15 1 28 7 28 6 0 3 11 -6 25 -10 16 -12 25 -5 25 6 0 9 7 5 15
-3 8 0 15 6 15 6 0 9 3 5 6 -8 8 29 80 46 91 20 12 28 40 18 66 -11 30 -3 47
17 40 15 -6 15 -5 2 11 -8 10 -15 25 -16 33 -2 8 -12 21 -23 29 -11 8 -18 21
-15 28 3 8 -11 21 -40 34 -24 12 -47 26 -51 32 -3 6 -11 8 -16 5 -5 -4 -9 -2
-9 4 0 5 -15 13 -32 17 -46 10 -178 11 -178 2 0 -4 15 -8 33 -8 19 0 37 -3 40
-7 4 -3 24 -8 44 -10 21 -2 40 -9 44 -14 3 -6 10 -9 15 -8 5 1 20 -3 34 -9 34
-15 90 -56 66 -48 -19 7 -19 6 -3 -12 18 -20 23 -47 7 -37 -15 9 -12 -2 6 -30
14 -21 14 -28 3 -42 -10 -11 -10 -14 -1 -9 17 10 15 -5 -6 -30 -22 -27 -46
-36 -61 -21 -8 8 -11 8 -11 0 0 -6 -9 -13 -21 -16 -15 -4 -19 -2 -15 9 3 8 1
14 -4 14 -6 0 -10 5 -10 10 0 6 6 10 14 10 7 0 16 9 19 20 5 21 -15 50 -36 50
-8 0 -7 3 2 9 9 6 10 11 2 15 -6 4 -11 4 -11 -1 0 -4 -5 -1 -10 7 -6 9 -10 10
-10 3 0 -6 -8 -10 -19 -8 -10 2 -31 -3 -46 -11 -15 -8 -32 -11 -38 -7 -6 3 -7
1 -3 -6 5 -7 -4 -15 -23 -22 -17 -6 -28 -15 -25 -21 4 -7 9 -6 14 2 4 6 7 -2
6 -18 -1 -17 -5 -27 -10 -24 -5 3 -6 -2 -3 -12 6 -14 3 -16 -13 -11 -16 5 -19
3 -13 -11 4 -12 3 -15 -5 -10 -7 4 -12 18 -12 32 0 18 5 24 21 24 19 0 19 2
-7 35 -27 36 -44 38 -44 4 0 -42 -68 -1 -85 51 -5 15 -13 19 -33 15 -14 -2
-29 1 -33 7 -4 6 -9 2 -14 -11 -3 -11 -13 -21 -21 -21 -16 0 -15 -46 2 -58 5
-4 10 -19 11 -34 1 -23 -2 -26 -21 -19 -11 5 -26 6 -33 4 -6 -2 -13 6 -16 19
-4 21 -4 20 -6 -4 -1 -30 40 -131 58 -142 21 -13 43 -68 32 -79 -7 -7 -7 -16
0 -29 5 -10 8 -18 5 -18 -3 0 -1 -14 4 -31 8 -26 5 -35 -16 -56 l-26 -26 28 7
28 7 -25 -21 c-14 -12 -17 -20 -8 -17 9 3 16 -1 16 -9 0 -7 -5 -10 -11 -7 -6
4 -5 -1 3 -10 7 -9 18 -14 25 -11 6 3 -4 -8 -23 -25 -33 -29 -38 -58 -6 -31
18 15 21 -1 4 -32 -6 -11 -8 -22 -6 -25 7 -7 28 33 33 65 8 43 16 41 10 -3 -7
-45 -30 -74 -54 -70 -26 4 -34 -5 -20 -23 11 -13 11 -15 -2 -8 -8 4 -7 1 3 -7
11 -9 14 -16 7 -19 -6 -2 -14 -26 -16 -53 -3 -27 -10 -52 -16 -56 -6 -4 -7
-12 -4 -18 4 -6 12 -9 17 -6 5 4 9 2 9 -4 0 -5 -6 -12 -13 -14 -6 -3 -2 -6 10
-6 12 -1 23 3 25 8 2 5 44 12 95 15 90 5 92 5 90 -17 -2 -28 -18 -44 -94 -92
-34 -22 -69 -52 -78 -67 -9 -16 -51 -64 -94 -108 -77 -78 -78 -80 -90 -151 -9
-55 -9 -74 0 -80 6 -4 8 -12 5 -18 -4 -6 -11 -9 -16 -6 -10 6 -63 -124 -56
-140 7 -18 -52 -85 -75 -85 -12 0 -26 15 -39 41 l-21 41 26 36 c14 21 34 48
44 62 38 53 102 169 112 203 5 20 25 57 43 84 18 27 36 58 40 70 6 18 4 20
-13 16 -20 -5 -20 -4 -5 46 8 28 12 56 9 61 -3 5 0 12 6 16 7 4 2 15 -16 31
-18 17 -24 31 -19 42 3 9 8 23 9 31 1 8 9 33 18 54 19 44 15 60 -8 30 -12 -15
-12 -10 2 18 32 71 0 59 -60 -22 -18 -25 -18 -25 -1 5 9 17 26 40 37 52 13 15
17 28 12 40 -5 10 -9 20 -9 23 -1 3 -6 13 -12 24 -10 17 -14 14 -45 -29 -18
-25 -35 -42 -37 -36 -2 5 15 35 38 66 25 34 38 60 33 68 -4 6 -6 22 -4 35 5
39 -20 24 -114 -70 -51 -51 -89 -89 -84 -84 16 18 9 26 -16 20 -24 -6 -25 -4
-24 32 0 22 4 66 8 99 5 33 5 65 1 70 -8 12 -6 53 5 78 10 25 -2 81 -37 164
-16 40 -26 77 -23 84 5 8 1 9 -14 4 -12 -4 -21 -2 -21 4 0 21 -93 150 -111
156 -14 5 -19 16 -19 41 0 24 -5 34 -15 34 -8 0 -15 9 -15 19 0 11 -4 22 -10
26 -6 4 -6 15 0 30 6 16 6 35 0 51 -6 14 -7 30 -4 35 3 6 0 17 -7 26 -23 27
-18 84 13 148 17 33 37 68 46 78 8 9 16 26 17 37 1 10 9 28 19 39 10 11 15 24
12 30 -12 18 12 47 53 66 23 10 41 21 41 25 0 4 12 12 26 18 14 7 22 17 19 22
-3 6 1 10 9 10 8 0 19 6 23 13 4 7 31 32 58 56 28 24 49 48 47 53 -1 5 17 18
41 28 55 24 59 29 41 47 -18 18 -4 40 29 45 12 2 22 10 22 18 0 8 6 19 13 23
7 5 9 13 6 19 -4 6 -1 14 7 18 16 11 21 41 8 56 -7 8 0 13 22 18 24 4 29 9 21
19 -7 8 -6 18 3 31 8 10 11 24 8 32 -3 8 1 14 11 14 18 0 22 15 6 25 -21 13 1
24 28 15 26 -10 26 -10 7 6 -14 11 -16 18 -7 21 6 3 9 9 6 15 -5 7 2 9 19 6
16 -3 24 -1 20 5 -3 5 7 6 27 2 22 -5 30 -4 26 3 -9 16 32 39 81 47 24 4 45
10 48 14 2 4 30 4 62 -1 64 -9 133 -2 133 14 0 6 9 8 20 5 11 -3 22 -1 25 4 3
4 52 6 108 3 126 -7 104 -7 222 2 110 8 290 8 345 0 19 -3 56 -8 81 -12 32 -4
54 -2 75 9 22 11 49 14 104 10 106 -7 102 -7 139 1 23 6 31 5 27 -3 -4 -6 4
-13 19 -17 14 -3 25 -11 25 -16 0 -6 7 -8 15 -5 8 4 17 2 20 -2 2 -5 17 -12
32 -16 16 -3 43 -14 61 -22 23 -11 48 -14 82 -10 27 3 52 2 55 -4 11 -17 53
-9 82 14 52 44 65 47 95 26 18 -14 35 -18 53 -13 19 5 25 3 23 -7 -2 -11 8
-13 42 -11 37 3 43 1 33 -9 -19 -19 -16 -29 10 -29 12 0 29 -9 37 -20 8 -11
20 -20 27 -20 7 0 13 -5 13 -11 0 -5 21 -19 46 -30 25 -12 58 -34 72 -50 28
-30 109 -58 237 -80 68 -12 105 -27 105 -43 0 -6 9 -17 20 -24 11 -7 20 -18
20 -26 0 -8 7 -17 16 -20 9 -4 14 -9 10 -13 -3 -3 8 -14 24 -24 17 -11 30 -23
30 -29 0 -5 9 -10 19 -10 11 0 22 -8 25 -18 4 -10 25 -29 49 -42 61 -34 102
-70 103 -92 1 -10 3 -20 5 -22 2 -1 22 -13 44 -26 72 -44 133 -94 159 -133 14
-21 26 -41 26 -45 0 -4 9 -18 20 -32 23 -30 25 -41 6 -34 -9 3 -13 -1 -13 -13
1 -12 -4 -17 -16 -16 -14 1 -18 -4 -14 -19 4 -15 -1 -22 -23 -30 -21 -7 -27
-14 -23 -26 3 -9 2 -14 -2 -10 -13 12 -32 -22 -40 -71 -5 -30 -13 -45 -25 -48
-11 -3 -16 -11 -13 -19 11 -28 -14 -13 -30 19 -13 26 -16 28 -16 11 -1 -12 6
-27 14 -34 19 -15 19 -30 1 -65 -13 -24 -15 -25 -24 -9 -7 12 -6 25 0 40 7 15
7 28 0 40 -9 16 -11 15 -10 -12 1 -17 -2 -36 -6 -42 -4 -7 -2 -21 4 -33 10
-17 8 -24 -8 -39 -11 -10 -23 -16 -26 -12 -4 3 -4 -1 0 -11 3 -10 1 -17 -5
-17 -6 0 -11 6 -11 13 0 6 -7 -2 -16 -20 -9 -17 -25 -33 -36 -36 -11 -3 -22
-15 -25 -26 -3 -12 -10 -21 -15 -21 -6 0 -8 9 -5 20 3 11 1 18 -4 14 -5 -3 -9
18 -9 46 0 28 -4 49 -9 46 -4 -3 -6 -18 -3 -33 l5 -27 -26 17 c-25 16 -26 16
-32 -3 -9 -28 -19 -25 -32 8 -10 25 -10 24 -5 -12 4 -31 2 -37 -8 -31 -10 6
-12 4 -7 -8 3 -9 2 -19 -4 -22 -11 -7 -2 -73 13 -92 6 -7 14 -11 20 -10 5 1
14 -8 19 -20 5 -14 5 -23 -1 -23 -16 0 -11 -27 5 -34 8 -3 15 -12 15 -21 0
-17 -20 -56 -34 -66 -5 -4 -6 -15 -2 -25 4 -9 2 -20 -4 -24 -6 -4 -15 -40 -19
-81 -7 -63 -6 -76 8 -87 9 -7 16 -17 16 -22 0 -4 3 -12 8 -16 4 -4 7 -15 7
-25 0 -10 9 -24 21 -33 27 -18 51 -64 38 -72 -5 -3 4 -23 21 -44 16 -21 30
-41 30 -44 0 -3 13 -34 30 -68 21 -46 53 -87 121 -153 50 -49 105 -114 122
-142 33 -55 67 -76 102 -62 11 4 60 8 109 8 88 1 137 -10 293 -66 60 -21 201
-127 205 -154 4 -28 50 -52 159 -83 79 -23 165 -31 292 -27 l47 1 0 143 c-1
130 -3 149 -29 224 -16 45 -36 89 -45 98 -15 15 -46 104 -46 131 0 19 -32 84
-42 84 -4 0 -8 6 -8 14 0 8 -25 39 -55 69 -30 30 -59 65 -64 78 -10 28 9 101
33 128 21 23 49 90 53 124 2 16 12 49 23 74 11 25 20 51 20 57 0 7 11 36 25
64 14 29 25 59 25 67 0 8 25 40 55 70 l55 56 0 704 0 703 -35 20 c-19 12 -37
32 -41 46 -3 15 -12 26 -19 26 -7 0 -20 17 -30 38 -28 62 -39 82 -47 82 -5 0
-8 6 -8 14 0 8 -6 21 -13 28 -8 7 -22 40 -32 73 -18 60 -42 115 -54 125 -3 3
-15 22 -25 43 l-19 37 -241 -1 -241 -1 65 -22 c56 -19 65 -27 71 -52 4 -16 14
-43 23 -61 9 -17 18 -46 19 -65 1 -18 5 -36 10 -39 4 -3 1 -22 -8 -42 -8 -20
-12 -37 -8 -37 5 0 0 -5 -9 -11 -10 -5 -18 -15 -18 -22 0 -12 -77 -86 -115
-111 -34 -22 -182 -49 -234 -41 -76 10 -131 37 -131 65 0 6 -12 15 -26 21 -15
5 -25 12 -22 15 3 2 -5 33 -17 69 -25 69 -28 176 -7 197 7 7 12 19 12 28 0 8
8 23 19 32 10 8 20 20 22 25 2 5 20 19 39 31 l35 22 -290 -4 c-304 -5 -456
-13 -465 -24 -3 -4 -20 -18 -39 -31 -33 -23 -36 -23 -62 -8 -16 9 -41 13 -57
11 -19 -3 -35 1 -45 11 -9 8 -20 15 -25 15 -6 0 -12 7 -16 15 -5 13 -254 15
-2161 15 l-2155 0 0 -2400z m1280 1501 c0 -12 7 -18 17 -17 10 0 18 -6 19 -14
11 -70 16 -90 24 -85 17 11 16 -20 -2 -40 -11 -11 -18 -31 -16 -45 3 -31 -65
-175 -86 -183 -9 -4 -16 -13 -16 -22 0 -8 -4 -15 -10 -15 -5 0 -10 -9 -10 -20
0 -11 -5 -20 -11 -20 -15 0 -34 -21 -53 -57 -12 -25 -30 -37 -76 -54 -33 -12
-65 -28 -71 -35 -13 -16 -51 -18 -77 -5 -41 21 -94 41 -107 41 -8 0 -12 6 -9
14 5 13 -48 66 -67 66 -15 0 -10 36 6 50 8 7 15 22 14 34 -1 33 -25 92 -35 86
-5 -3 -10 16 -12 42 -3 39 1 52 22 74 13 15 27 41 30 59 11 59 62 90 166 100
41 4 83 12 93 17 38 20 122 36 139 27 28 -15 98 -11 104 6 9 21 24 19 24 -4z
m3660 -1036 c7 -9 8 -15 2 -15 -5 0 -12 7 -16 15 -3 8 -4 15 -2 15 2 0 9 -7
16 -15z m-2367 -69 c-5 -48 -19 -50 -18 -3 3 65 5 75 14 52 4 -11 6 -33 4 -49z
m2297 34 c0 -5 -4 -10 -10 -10 -5 0 -10 5 -10 10 0 6 5 10 10 10 6 0 10 -4 10
-10z m-20 -30 c0 -5 -4 -10 -10 -10 -5 0 -10 5 -10 10 0 6 5 10 10 10 6 0 10
-4 10 -10z m-2686 -35 c5 -15 -30 -42 -42 -31 -3 3 0 6 7 6 7 0 11 6 8 14 -6
14 1 26 14 26 4 0 9 -7 13 -15z m6 -39 c0 -2 -7 -7 -16 -10 -8 -3 -12 -2 -9 4
6 10 25 14 25 6z m224 -12 c3 -8 2 -12 -4 -9 -6 3 -10 10 -10 16 0 14 7 11 14
-7z m66 2 c0 -3 -4 -8 -10 -11 -5 -3 -10 -1 -10 4 0 6 5 11 10 11 6 0 10 -2
10 -4z m-447 -51 c-3 -9 -8 -14 -10 -11 -3 3 -2 9 2 15 9 16 15 13 8 -4z m401
-16 c-3 -5 -10 -7 -15 -4 -5 4 -9 1 -9 -6 0 -7 -3 -10 -6 -6 -4 3 -15 -4 -25
-16 -16 -19 -18 -20 -19 -4 0 13 -7 16 -32 15 -24 -2 -33 1 -36 15 -3 16 2 17
47 11 32 -4 51 -3 51 3 0 6 11 8 25 5 14 -2 22 -8 19 -13z m-374 -5 c0 -8 -4
-12 -10 -9 -5 3 -10 10 -10 16 0 5 5 9 10 9 6 0 10 -7 10 -16z m440 -28 c0 -3
-4 -8 -10 -11 -5 -3 -10 -1 -10 4 0 6 5 11 10 11 6 0 10 -2 10 -4z m-35 -26
c3 -5 1 -10 -5 -10 -6 0 -8 -6 -4 -12 4 -7 3 -9 -1 -5 -12 10 -15 37 -5 37 5
0 12 -4 15 -10z m-375 -204 c0 -3 -4 -8 -10 -11 -5 -3 -10 -1 -10 4 0 6 5 11
10 11 6 0 10 -2 10 -4z m20 -10 c0 -2 -8 -10 -17 -17 -16 -13 -17 -12 -4 4 13
16 21 21 21 13z m130 -52 c0 -8 -19 -13 -24 -6 -3 5 1 9 9 9 8 0 15 -2 15 -3z
m12 -26 c-7 -7 -12 -8 -12 -2 0 6 3 14 7 17 3 4 9 5 12 2 2 -3 -1 -11 -7 -17z
m156 -3 c-3 -3 -9 2 -12 12 -6 14 -5 15 5 6 7 -7 10 -15 7 -18z m-291 -52 c-3
-10 -5 -2 -5 17 0 19 2 27 5 18 2 -10 2 -26 0 -35z m36 26 c4 -16 3 -18 -9 -8
-7 6 -11 15 -8 20 8 13 11 11 17 -12z m238 7 c5 3 9 0 9 -5 0 -6 -7 -11 -15
-11 -8 0 -15 8 -14 18 0 10 3 12 6 4 2 -6 9 -10 14 -6z m964 -16 c10 -11 16
-20 13 -20 -3 0 -13 9 -23 20 -10 11 -16 20 -13 20 3 0 13 -9 23 -20z m-788
-36 c2 -13 0 -11 -7 5 -6 13 -13 21 -16 18 -3 -3 -1 -14 5 -25 6 -12 11 -26
11 -33 0 -26 -29 16 -36 51 l-7 35 24 -16 c13 -9 25 -25 26 -35z m-49 -29 c-3
-3 -9 2 -12 12 -6 14 -5 15 5 6 7 -7 10 -15 7 -18z m72 -30 c0 -5 -5 -3 -10 5
-5 8 -10 20 -10 25 0 6 5 3 10 -5 5 -8 10 -19 10 -25z m-889 -78 c-10 -9 -11
-8 -5 6 3 10 9 15 12 12 3 -3 0 -11 -7 -18z m1636 7 c-3 -3 -12 -4 -19 -1 -8
3 -5 6 6 6 11 1 17 -2 13 -5z m-1610 -36 c-3 -8 -6 -5 -6 6 -1 11 2 17 5 13 3
-3 4 -12 1 -19z m54 -11 c-10 -9 -11 -8 -5 6 3 10 9 15 12 12 3 -3 0 -11 -7
-18z m969 13 c0 -5 -4 -10 -10 -10 -5 0 -10 5 -10 10 0 6 5 10 10 10 6 0 10
-4 10 -10z m140 -96 c0 -10 -39 12 -49 27 -11 19 -9 18 18 -2 17 -13 31 -24
31 -25z m410 4 c0 -12 -6 -9 -26 13 -19 22 -19 22 4 8 12 -8 22 -17 22 -21z
m-606 3 c10 -16 8 -55 -6 -112 -8 -30 -11 -64 -8 -75 4 -10 3 -27 -2 -38 -7
-13 -7 -16 1 -12 6 4 11 3 11 -2 0 -9 -81 -34 -88 -28 -2 2 11 8 27 14 29 10
43 32 21 32 -5 0 -10 -5 -10 -11 0 -8 -6 -7 -17 2 -13 11 -17 11 -20 1 -3 -6
-9 -10 -13 -7 -5 3 -21 -6 -36 -20 -15 -14 -32 -25 -39 -25 -16 0 -26 -38 -13
-47 7 -3 8 -1 4 5 -5 8 3 10 26 5 60 -11 54 -19 -22 -28 -30 -4 -57 -8 -61
-10 -13 -9 -149 -16 -149 -9 0 5 4 15 9 22 7 11 9 11 14 -2 9 -23 30 -20 24 3
-4 15 -1 18 12 13 14 -5 14 -3 3 10 -9 11 -10 18 -2 23 5 3 10 2 10 -3 0 -11
76 -10 87 2 9 9 -18 27 -29 20 -5 -3 -29 -7 -54 -9 -32 -2 -47 1 -51 11 -3 8
-10 14 -15 14 -6 0 -7 -7 -4 -16 5 -14 4 -15 -9 -4 -12 10 -15 10 -15 -1 -1
-10 -4 -9 -10 3 -6 10 -19 15 -31 13 -14 -3 -25 4 -37 25 -9 17 -20 30 -24 30
-15 0 -48 80 -48 115 0 27 4 35 18 35 23 0 56 -35 48 -49 -4 -6 2 -16 13 -22
10 -7 17 -19 14 -26 -4 -9 0 -11 13 -6 12 4 15 3 10 -5 -4 -7 -14 -12 -22 -12
-8 0 -12 -4 -9 -10 3 -5 16 -10 28 -10 45 0 107 -12 107 -21 0 -5 14 -9 31 -9
16 0 28 4 24 9 -5 9 87 41 126 44 10 1 16 4 14 8 -3 3 9 19 26 35 17 16 46 55
65 87 35 56 47 66 58 48z m191 -29 c-3 -3 -11 0 -18 7 -9 10 -8 11 6 5 10 -3
15 -9 12 -12z m65 -39 c8 -10 4 -13 -17 -13 -37 0 -73 10 -73 20 0 4 16 4 35
0 35 -8 50 5 20 16 -8 4 -12 11 -8 17 4 6 11 3 19 -9 7 -10 18 -25 24 -31z
m120 2 c0 -10 -7 -14 -22 -11 -35 7 -35 7 -8 16 14 4 26 8 28 9 1 1 2 -6 2
-14z m190 -49 c0 -3 -4 -8 -10 -11 -5 -3 -10 -1 -10 4 0 6 5 11 10 11 6 0 10
-2 10 -4z m48 -12 c6 3 13 2 16 -3 6 -9 -54 -25 -62 -16 -3 3 2 5 11 5 11 0
15 6 11 18 -5 13 -4 14 4 3 5 -7 14 -11 20 -7z m-23 -74 c-3 -5 -13 -10 -21
-10 -8 0 -12 5 -9 10 3 6 13 10 21 10 8 0 12 -4 9 -10z m-1336 -84 c-8 -6 -13
-22 -11 -36 2 -18 0 -21 -6 -11 -7 10 -13 6 -25 -17 -13 -27 -13 -31 0 -36 10
-4 13 -2 10 8 -5 11 4 14 38 12 49 -3 64 -10 40 -20 -9 -3 -13 -2 -10 4 3 5
-4 8 -15 7 -20 -1 -22 -4 -24 -29 -1 -16 -12 -27 -53 -56 -42 -30 -67 -29 -57
1 4 12 11 25 16 28 6 4 6 9 -1 13 -6 4 -11 12 -11 17 0 6 5 7 11 4 6 -4 10 -1
8 6 -4 34 3 51 37 81 20 18 40 32 45 31 5 -2 9 5 10 15 0 12 2 13 6 3 3 -8 -1
-19 -8 -25z m1236 24 c3 -5 1 -10 -4 -10 -6 0 -11 5 -11 10 0 6 2 10 4 10 3 0
8 -4 11 -10z m-1180 -22 c5 4 5 1 1 -5 -10 -19 -36 -16 -36 3 0 13 3 14 13 5
8 -6 18 -7 22 -3z m835 -52 c0 -2 -7 -7 -16 -10 -8 -3 -12 -2 -9 4 6 10 25 14
25 6z m-201 -27 c-16 -10 -23 -4 -14 10 3 6 11 8 17 5 6 -4 5 -9 -3 -15z m49
-17 c2 -7 -3 -12 -12 -12 -9 0 -16 7 -16 16 0 17 22 14 28 -4z m166 -8 c9 -25
2 -26 -17 -4 -13 16 -14 20 -3 20 8 0 17 -7 20 -16z m-104 -14 c0 -11 -30 -21
-41 -14 -16 10 -9 19 16 20 14 1 25 -2 25 -6z m-748 -22 c-7 -7 -12 -8 -12 -2
0 6 3 14 7 17 3 4 9 5 12 2 2 -3 -1 -11 -7 -17z m100 4 c-7 -2 -9 -9 -6 -15 5
-9 4 -9 -6 0 -15 13 -4 37 13 26 8 -5 8 -8 -1 -11z m288 -2 c0 -5 -4 -10 -10
-10 -5 0 -10 5 -10 10 0 6 5 10 10 10 6 0 10 -4 10 -10z m375 -20 c3 -5 1 -10
-4 -10 -6 0 -11 5 -11 10 0 6 2 10 4 10 3 0 8 -4 11 -10z m-150 -58 c-3 -3
-11 0 -18 7 -9 10 -8 11 6 5 10 -3 15 -9 12 -12z m635 -11 c0 -5 -7 -12 -16
-15 -14 -5 -15 -4 -4 9 14 17 20 19 20 6z m-1060 -4 c0 -2 -9 -12 -20 -22 -24
-21 -27 -14 -4 9 15 15 24 20 24 13z m30 -26 c-11 -21 -30 -37 -30 -25 0 8 30
44 37 44 2 0 -1 -9 -7 -19z"/>
<path d="M2460 1715 c-17 -21 -10 -26 26 -16 28 7 28 8 8 19 -18 9 -24 9 -34
-3z"/>
<path d="M3929 3938 c-6 -21 -5 -39 2 -44 5 -3 7 -10 3 -15 -3 -6 2 -20 12
-32 10 -12 12 -16 4 -9 -8 6 -29 12 -47 12 -25 0 -31 -4 -27 -15 4 -8 12 -15
20 -15 8 0 11 -6 8 -15 -4 -10 0 -15 12 -15 15 0 16 -2 5 -9 -9 -6 -10 -11 -2
-15 6 -4 9 -11 6 -16 -3 -5 5 -12 17 -15 22 -6 75 -91 63 -103 -3 -3 -5 0 -5
6 0 6 -10 17 -22 23 -21 11 -21 9 5 -24 15 -20 24 -37 19 -37 -9 0 17 -90 29
-100 3 -3 8 -13 12 -22 4 -12 1 -18 -9 -18 -11 0 -14 -6 -10 -16 3 -9 6 -18 6
-20 0 -2 7 -4 15 -4 9 0 15 -9 15 -24 0 -13 3 -33 6 -43 6 -17 6 -17 -8 1 -30
39 -35 9 -31 -206 4 -243 7 -308 18 -360 5 -28 4 -38 -5 -38 -9 0 -9 -4 1 -16
22 -27 38 -85 33 -124 -3 -21 2 -49 10 -65 8 -16 12 -33 9 -38 -3 -6 2 -16 12
-24 11 -7 14 -13 9 -13 -12 0 -12 -40 -1 -58 15 -22 26 -72 17 -72 -16 0 -8
-62 9 -68 8 -3 25 -16 37 -29 12 -13 28 -21 35 -18 17 6 79 -126 79 -167 0
-15 5 -30 10 -33 6 -3 10 -18 9 -33 0 -26 -1 -25 -13 7 -9 25 -15 31 -21 21
-6 -10 -11 -9 -22 5 -7 11 -13 14 -13 9 0 -5 -9 -10 -20 -10 -11 0 -20 4 -20
8 0 14 -18 8 -24 -8 -4 -10 3 -23 19 -36 14 -11 25 -27 25 -36 0 -12 -3 -13
-12 -4 -20 20 -30 13 -14 -10 23 -33 20 -41 -14 -36 -21 3 -27 1 -20 -6 17
-17 11 -27 -10 -16 -25 13 -26 6 -1 -19 14 -14 29 -18 65 -15 43 4 46 3 37
-14 -7 -13 -6 -23 2 -31 9 -9 7 -13 -11 -17 -12 -4 -22 -11 -22 -17 0 -18 -34
-87 -43 -87 -4 0 -5 -4 -2 -10 9 -15 45 -12 45 4 0 8 9 21 19 28 11 8 25 27
33 43 7 17 15 32 18 35 3 3 18 25 35 50 36 55 66 85 84 85 29 0 55 53 58 117
1 35 4 80 7 101 2 22 0 37 -7 37 -17 0 2 14 23 17 10 1 22 -2 25 -7 3 -6 -2
-10 -12 -10 -16 -1 -16 -2 -2 -13 17 -13 15 -82 -4 -105 -7 -9 -5 -16 8 -26
10 -7 20 -22 21 -32 6 -33 43 -120 45 -104 1 13 8 -22 24 -120 2 -13 9 -26 14
-28 6 -2 11 -9 11 -17 0 -7 6 -18 14 -24 10 -9 16 -8 26 4 11 13 11 23 0 55
-9 27 -10 53 -4 87 13 73 10 184 -5 223 -8 19 -28 50 -44 69 -16 18 -33 44
-39 57 -8 18 -14 20 -28 12 -13 -8 -22 -5 -43 16 -14 14 -31 26 -37 26 -5 0
-10 7 -10 15 0 8 -6 12 -14 9 -20 -8 -60 37 -44 49 9 6 8 7 -4 3 -10 -3 -24 2
-33 10 -8 9 -15 12 -15 7 0 -4 -12 9 -27 30 -14 20 -30 37 -35 37 -4 0 -8 4
-8 9 0 6 -13 25 -30 43 -16 18 -30 38 -30 44 0 6 -7 17 -14 24 -28 22 -75 142
-111 280 -16 59 -20 162 -13 295 1 22 -1 65 -4 95 -4 35 -4 44 1 25 l9 -30 2
35 c1 19 4 27 7 18 2 -10 11 -18 19 -18 15 0 17 -11 17 -122 0 -38 4 -68 8
-68 5 0 9 8 10 18 0 11 2 12 6 4 3 -7 -2 -21 -10 -30 -19 -21 -34 -88 -18 -78
7 4 11 -1 11 -13 0 -10 5 -21 11 -23 9 -3 9 -10 -1 -27 -6 -13 -7 -21 -2 -17
6 3 12 0 15 -6 2 -7 4 -1 4 14 1 36 24 58 53 51 19 -5 22 -3 17 10 -3 9 0 31
7 49 7 18 11 39 8 47 -2 8 0 11 6 8 5 -4 12 5 15 19 6 34 -15 173 -32 203 -8
15 -11 38 -7 65 8 50 -1 85 -16 64 -7 -9 -8 -3 -4 17 4 19 3 25 -2 16 -7 -9
-12 -10 -16 -2 -4 6 -4 11 1 11 4 0 -3 7 -15 16 -12 8 -22 26 -22 40 0 13 -5
24 -11 24 -5 0 -7 4 -4 10 6 9 -21 59 -39 71 -5 4 -6 15 -2 24 3 10 2 23 -4
30 -5 6 -14 36 -20 66 -8 42 -18 61 -45 87 -39 36 -42 42 -21 42 9 0 12 7 9
20 -4 16 -8 18 -20 9 -10 -9 -17 -9 -25 -1 -8 8 -3 13 18 19 l29 7 -30 6 c-16
3 -29 11 -27 18 1 10 -26 19 -29 10z m37 -143 c13 -13 13 -15 1 -15 -8 0 -17
7 -21 15 -3 8 -3 15 0 15 3 0 12 -7 20 -15z m84 -472 c0 -32 -5 -28 -14 10 -4
19 -3 26 4 22 5 -3 10 -18 10 -32z m0 -240 c-11 -17 -11 -17 -6 0 3 10 7 33 8
50 l1 32 4 -32 c2 -18 -1 -41 -7 -50z m200 52 c0 -8 -4 -15 -10 -15 -5 0 -7 7
-4 15 4 8 8 15 10 15 2 0 4 -7 4 -15z m-32 -30 c-3 -3 -9 2 -12 12 -6 14 -5
15 5 6 7 -7 10 -15 7 -18z m14 -42 c-3 -16 -7 -22 -10 -15 -4 13 4 42 11 42 2
0 2 -12 -1 -27z m38 -793 c9 12 10 11 8 -7 -2 -12 1 -22 6 -22 14 0 53 -111
61 -174 7 -51 -11 -39 -20 13 -4 22 -11 40 -16 40 -5 0 -9 8 -9 18 0 18 -7 33
-54 117 -20 36 -22 43 -7 25 18 -21 22 -23 31 -10z m93 -127 c17 -34 30 -123
18 -123 -10 0 -21 35 -21 68 0 13 -7 36 -15 52 -9 17 -11 30 -6 30 6 0 17 -12
24 -27z"/>
<path d="M3885 3880 c3 -5 10 -10 16 -10 5 0 9 5 9 10 0 6 -7 10 -16 10 -8 0
-12 -4 -9 -10z"/>
<path d="M1857 3778 c-4 -12 -4 -24 -1 -27 6 -7 24 20 24 37 0 21 -17 13 -23
-10z"/>
<path d="M1842 3729 c2 -7 10 -15 17 -17 8 -3 12 1 9 9 -2 7 -10 15 -17 17 -8
3 -12 -1 -9 -9z"/>
<path d="M4635 3700 c3 -5 8 -10 11 -10 2 0 4 5 4 10 0 6 -5 10 -11 10 -5 0
-7 -4 -4 -10z"/>
<path d="M1830 3685 c-10 -12 -10 -15 2 -15 8 0 15 7 15 15 0 8 -1 15 -2 15
-2 0 -8 -7 -15 -15z"/>
<path d="M4557 3662 c4 -10 9 -10 22 0 9 7 17 13 19 14 2 1 -8 1 -21 0 -15 0
-23 -6 -20 -14z"/>
<path d="M4730 3610 c-13 -8 -12 -10 3 -10 9 0 17 5 17 10 0 12 -1 12 -20 0z"/>
<path d="M3159 3549 c-29 -29 -44 -38 -53 -30 -18 15 -45 -4 -28 -21 6 -6 12
-19 11 -28 0 -10 -4 -7 -11 8 -13 26 -32 24 -36 -4 -2 -14 -1 -16 6 -5 8 11
11 11 18 0 4 -7 3 -14 -4 -17 -7 -2 -10 -9 -6 -15 3 -7 -3 -2 -14 10 -18 21
-20 21 -25 4 -2 -10 0 -25 5 -34 7 -13 5 -15 -7 -11 -17 7 -36 -31 -27 -56 3
-11 1 -11 -9 2 -18 21 -43 5 -47 -31 -2 -18 1 -22 15 -17 15 6 16 5 6 -5 -19
-19 -16 -29 8 -29 11 0 18 4 15 9 -3 5 1 11 9 15 8 3 15 1 15 -5 0 -6 6 -9 14
-6 16 6 41 -17 33 -30 -3 -5 3 -10 14 -10 10 -1 19 2 19 8 0 5 7 9 15 9 8 0
15 -4 15 -9 0 -5 12 -8 27 -5 14 3 44 -2 66 -11 37 -15 39 -15 33 2 -6 15 -5
15 14 -2 11 -10 20 -13 20 -7 0 7 5 12 11 12 5 0 8 -4 4 -9 -3 -5 -1 -12 4
-15 9 -6 26 22 22 38 -1 5 5 4 13 -4 14 -10 16 -10 16 5 0 14 3 15 15 5 12
-10 15 -10 15 0 0 7 8 10 19 7 14 -3 18 -1 14 10 -5 12 2 14 36 10 23 -2 41 0
41 5 0 6 7 8 15 4 8 -3 15 -3 15 1 0 8 -83 117 -93 121 -4 2 -5 8 -2 13 6 9
-41 25 -61 21 -6 -1 -18 6 -25 15 -13 16 -12 17 3 5 13 -11 21 -11 35 -2 15 9
15 11 1 6 -10 -3 -23 5 -35 20 -13 19 -24 23 -43 19 -24 -5 -25 -5 -5 11 20
15 19 15 -5 10 -14 -3 -43 -8 -65 -11 -22 -4 -46 -12 -54 -18 -12 -10 -12 -9
-2 11 6 12 16 22 20 22 5 0 11 9 14 21 4 13 10 18 18 13 8 -4 10 -3 5 4 -10
17 -12 16 -57 -29z m-49 -57 c0 -15 -2 -15 -10 -2 -13 20 -13 33 0 25 6 -3 10
-14 10 -23z m169 -61 c11 -7 9 -10 -8 -16 -11 -3 -26 -3 -31 0 -6 4 -17 1 -25
-5 -18 -15 -20 1 -3 18 14 14 47 15 67 3z"/>
<path d="M4636 3557 c3 -10 9 -15 12 -12 3 3 0 11 -7 18 -10 9 -11 8 -5 -6z"/>
<path d="M4670 3541 c0 -6 5 -13 10 -16 6 -4 8 -10 5 -15 -6 -10 60 -80 76
-80 6 0 -2 12 -18 28 -17 15 -38 42 -47 60 -17 32 -26 40 -26 23z"/>
<path d="M2100 3520 c0 -4 -10 -5 -22 -3 -13 2 -43 -5 -68 -16 -40 -19 -41
-20 -12 -15 37 6 42 -2 10 -17 -37 -16 -74 -39 -65 -39 5 0 0 -16 -12 -36 -12
-19 -21 -41 -21 -49 0 -22 93 -74 123 -68 16 3 27 1 27 -5 0 -7 11 -5 28 3 15
8 35 12 44 9 21 -6 68 23 68 43 0 11 4 11 21 2 15 -8 24 -8 32 0 8 8 7 11 -4
11 -8 0 -15 9 -16 20 -1 11 1 18 5 16 4 -3 8 4 8 15 0 12 -5 18 -13 15 -7 -3
-13 1 -13 9 0 8 -6 15 -13 15 -7 0 -27 22 -44 48 -17 27 -39 49 -47 49 -9 0
-16 -3 -16 -7z m44 -88 c2 -4 -11 -12 -30 -18 -26 -8 -34 -8 -34 1 0 6 3 15 7
18 9 10 51 9 57 -1z"/>
<path d="M4161 3484 c0 -11 3 -14 6 -6 3 7 2 16 -1 19 -3 4 -6 -2 -5 -13z"/>
<path d="M4507 3494 c-4 -4 -7 -18 -7 -32 0 -17 -4 -23 -15 -18 -13 5 -13 2 1
-19 9 -14 20 -23 24 -20 5 3 8 -3 8 -12 0 -10 1 -25 4 -33 3 -8 3 -12 1 -7 -3
4 -9 7 -14 7 -5 0 -8 -3 -6 -7 1 -5 -2 -9 -8 -10 -14 -3 -23 -74 -12 -97 6
-12 5 -22 -3 -30 -8 -8 -10 -7 -5 7 4 10 2 17 -4 17 -6 0 -11 -4 -11 -10 0 -5
-7 -10 -15 -10 -17 0 -18 -6 -4 -35 9 -19 9 -18 5 3 -2 12 -3 22 -1 22 8 0 57
-81 51 -87 -3 -3 -6 -1 -6 6 0 7 -6 11 -14 8 -8 -3 -17 -1 -20 6 -2 7 -5 1 -5
-11 -1 -16 6 -26 19 -29 22 -6 27 -28 8 -39 -6 -4 -17 1 -25 11 -12 18 -13 18
-13 -2 0 -11 7 -27 16 -34 9 -7 20 -23 25 -36 12 -32 49 -31 49 0 0 24 28 57
48 57 6 0 16 -8 22 -17 9 -16 10 -15 8 7 -2 15 -12 29 -25 35 -13 5 -23 15
-23 22 0 17 27 17 33 1 4 -10 6 -10 6 0 2 26 21 10 21 -17 0 -17 5 -33 11 -37
6 -3 9 -14 6 -24 -3 -11 1 -21 9 -24 16 -6 20 24 5 40 -5 5 -11 27 -15 49 l-6
40 15 -30 c15 -30 15 -30 10 -3 -3 15 -1 30 5 33 5 3 10 2 10 -4 0 -6 9 -15
20 -21 16 -8 20 -8 20 4 0 8 -7 21 -16 28 -8 7 -24 21 -35 31 -11 10 -19 12
-19 5 0 -6 -2 -9 -5 -7 -10 10 8 47 20 42 8 -2 11 -11 8 -19 -6 -16 17 -15 29
1 5 6 8 6 8 -1 0 -7 7 -15 16 -18 10 -4 13 -2 8 6 -4 7 -3 8 5 4 18 -11 53 4
47 20 -7 19 1 18 31 -6 14 -11 29 -18 33 -15 12 7 5 40 -8 41 -7 1 -16 2 -22
3 -5 0 -10 10 -10 21 0 11 -5 20 -12 20 -15 0 -1 13 17 16 8 1 13 -2 9 -7 -3
-5 5 -9 17 -9 19 0 18 4 -17 43 -21 23 -45 47 -53 53 -12 10 -12 13 0 26 10
12 19 13 36 5 13 -6 23 -15 22 -21 -3 -22 1 -36 9 -36 5 0 9 13 9 30 0 16 -4
27 -8 24 -4 -2 -9 1 -11 6 -2 6 -22 13 -46 15 -64 6 -82 13 -75 33 6 15 5 15
-10 3 -18 -14 -12 -30 23 -58 9 -8 10 -12 3 -13 -6 0 -28 16 -47 35 -42 41
-46 42 -46 15 0 -11 5 -20 10 -20 6 0 10 -13 10 -30 0 -16 5 -30 11 -30 6 0 8
9 4 20 -3 11 -2 20 3 20 14 0 23 -28 12 -35 -5 -3 -7 -12 -4 -19 4 -11 -2 -11
-31 2 -20 9 -31 18 -26 20 6 2 11 15 11 28 0 20 -5 24 -31 24 -27 0 -30 3 -23
22 6 20 5 21 -10 9 -9 -7 -16 -12 -17 -10 0 2 -2 14 -3 27 -3 26 -19 46 -29
36z m78 -103 c3 -5 1 -12 -5 -16 -5 -3 -10 1 -10 9 0 18 6 21 15 7z m-30 -11
c3 -6 -1 -7 -9 -4 -18 7 -21 14 -7 14 6 0 13 -4 16 -10z m185 -47 c0 -3 -7 -2
-16 1 -12 5 -15 2 -10 -10 5 -14 4 -15 -9 -4 -12 10 -13 15 -4 21 12 7 39 2
39 -8z m-105 -35 c5 4 5 1 1 -6 -5 -8 2 -20 16 -32 13 -11 18 -19 12 -20 -11
0 -45 34 -59 60 -7 12 -6 13 7 3 8 -7 19 -9 23 -5z m75 -8 c0 -5 -2 -10 -4
-10 -3 0 -8 5 -11 10 -3 6 -1 10 4 10 6 0 11 -4 11 -10z m-1 -47 c-10 -11 -14
-10 -25 4 -20 27 -17 34 11 21 19 -9 22 -14 14 -25z m46 25 c24 -11 34 -28 16
-28 -11 0 -59 39 -49 40 4 0 19 -5 33 -12z m-205 -163 c0 -5 -5 -3 -10 5 -5 8
-10 20 -10 25 0 6 5 3 10 -5 5 -8 10 -19 10 -25z m-39 -48 c-8 -8 -11 -7 -11
4 0 20 13 34 18 19 3 -7 -1 -17 -7 -23z m25 -14 c-10 -10 -19 5 -10 18 6 11 8
11 12 0 2 -7 1 -15 -2 -18z"/>
<path d="M4790 3471 c0 -6 4 -13 10 -16 6 -3 7 1 4 9 -7 18 -14 21 -14 7z"/>
<path d="M4645 3460 c3 -5 11 -10 16 -10 6 0 7 5 4 10 -3 6 -11 10 -16 10 -6
0 -7 -4 -4 -10z"/>
<path d="M4940 3450 c0 -6 5 -10 10 -10 6 0 10 -7 10 -16 0 -9 9 -27 20 -41
30 -39 26 -65 -5 -28 -19 23 -24 26 -25 13 0 -10 5 -18 10 -18 6 0 10 -4 10
-10 0 -18 -15 -10 -32 18 -10 15 -17 20 -18 12 0 -8 9 -26 20 -40 23 -30 26
-48 5 -30 -18 15 -20 -1 -3 -18 9 -9 7 -13 -5 -18 -18 -6 -24 -34 -8 -34 6 0
9 -12 7 -27 -1 -16 7 -45 17 -66 22 -43 33 -44 17 -2 -13 34 -5 45 15 19 14
-18 14 -17 15 14 0 20 -4 31 -10 27 -16 -10 -12 11 5 25 9 8 13 21 9 36 -4 13
-2 30 3 37 19 24 13 63 -14 92 -17 18 -23 30 -15 33 19 6 14 18 -13 30 -15 7
-25 8 -25 2z"/>
<path d="M4770 3385 c0 -3 9 -15 20 -27 22 -24 27 -13 6 15 -13 16 -26 23 -26
12z"/>
<path d="M1750 3360 c0 -5 5 -10 11 -10 5 0 7 5 4 10 -3 6 -8 10 -11 10 -2 0
-4 -4 -4 -10z"/>
<path d="M1766 3325 c-8 -8 -19 -15 -25 -15 -6 0 -11 -7 -11 -15 0 -8 -5 -15
-11 -15 -6 0 -7 -5 -2 -12 8 -13 9 -18 12 -77 l1 -34 20 23 c27 31 34 21 15
-24 -9 -21 -11 -35 -6 -31 7 4 11 -5 11 -21 0 -15 3 -24 7 -21 6 6 22 208 17
215 -1 2 -13 -1 -26 -8 -20 -10 -20 -8 5 12 15 13 27 27 27 31 0 12 -18 8 -34
-8z"/>
<path d="M5116 3317 c3 -10 9 -15 12 -12 3 3 0 11 -7 18 -10 9 -11 8 -5 -6z"/>
<path d="M4890 3302 c0 -12 19 -26 26 -19 2 2 -2 10 -11 17 -9 8 -15 8 -15 2z"/>
<path d="M4760 3173 c0 -5 15 -17 33 -28 28 -17 30 -17 18 -1 -17 21 -51 40
-51 29z"/>
<path d="M4285 3160 c-3 -5 2 -19 13 -30 18 -20 19 -20 14 10 -4 30 -16 39
-27 20z"/>
<path d="M4326 3150 c7 -18 7 -19 5 -50 -1 -18 -4 -21 -10 -11 -5 7 -14 10
-20 7 -6 -4 -11 -2 -11 5 0 7 -2 10 -5 7 -4 -3 -3 -18 1 -33 5 -19 9 -23 15
-14 6 10 8 7 6 -8 -1 -16 -7 -21 -22 -20 -17 2 -20 -5 -23 -46 -2 -26 -6 -46
-10 -43 -4 2 -12 -7 -19 -20 -6 -13 -7 -24 -2 -24 5 0 9 5 9 10 0 6 5 10 10
10 15 0 12 -26 -5 -40 -16 -14 -20 -30 -7 -30 11 0 28 36 37 74 5 23 9 26 15
16 7 -12 10 -12 15 3 6 13 11 14 26 6 16 -8 19 -6 18 13 0 13 -3 17 -6 10 -10
-25 -19 -2 -16 40 6 75 14 106 34 127 25 27 24 28 -11 27 -23 -1 -29 -5 -24
-16z m-16 -165 c0 -14 -4 -25 -10 -25 -5 0 -10 11 -10 25 0 14 5 25 10 25 6 0
10 -11 10 -25z"/>
<path d="M4710 3151 c0 -5 5 -13 10 -16 6 -3 10 -2 10 4 0 5 -4 13 -10 16 -5
3 -10 2 -10 -4z"/>
<path d="M4410 3120 c0 -25 -9 -25 -26 -2 -12 16 -13 16 -10 -1 4 -30 23 -42
40 -24 18 17 21 47 6 47 -5 0 -10 -9 -10 -20z"/>
<path d="M4749 3118 c7 -9 10 -27 7 -40 l-6 -23 12 23 c10 19 8 26 -7 40 -18
16 -18 16 -6 0z"/>
<path d="M4676 3082 c-3 -5 1 -15 9 -22 16 -14 20 -3 6 19 -5 8 -11 9 -15 3z"/>
<path d="M4711 3074 c0 -11 3 -14 6 -6 3 7 2 16 -1 19 -3 4 -6 -2 -5 -13z"/>
<path d="M4910 3080 c0 -5 5 -10 11 -10 5 0 7 5 4 10 -3 6 -8 10 -11 10 -2 0
-4 -4 -4 -10z"/>
<path d="M4950 3064 c0 -5 9 -17 20 -27 11 -9 20 -13 20 -8 0 4 -9 16 -20 26
-11 10 -20 14 -20 9z"/>
<path d="M4398 3054 c-4 -3 -4 -12 -2 -19 4 -10 -1 -12 -18 -8 l-23 5 24 -17
c19 -15 25 -15 32 -4 11 17 11 21 1 37 -5 7 -11 10 -14 6z"/>
<path d="M2217 3033 c-4 -3 -7 -11 -7 -17 0 -6 5 -5 12 2 6 6 9 14 7 17 -3 3
-9 2 -12 -2z"/>
<path d="M4430 3032 c0 -5 7 -17 15 -28 15 -19 20 -8 9 20 -6 17 -24 22 -24 8z"/>
<path d="M1681 3014 c0 -11 3 -14 6 -6 3 7 2 16 -1 19 -3 4 -6 -2 -5 -13z"/>
<path d="M1758 2980 c-3 -16 -1 -30 4 -30 4 0 8 14 8 30 0 17 -2 30 -4 30 -2
0 -6 -13 -8 -30z"/>
<path d="M4540 2996 c0 -9 5 -16 10 -16 6 0 10 4 10 9 0 6 -4 13 -10 16 -5 3
-10 -1 -10 -9z"/>
<path d="M4611 2994 c0 -11 3 -14 6 -6 3 7 2 16 -1 19 -3 4 -6 -2 -5 -13z"/>
<path d="M1671 2948 c1 -13 5 -34 9 -48 7 -19 8 -15 7 22 -1 27 -5 48 -9 48
-5 0 -8 -10 -7 -22z"/>
<path d="M4460 2951 c0 -11 5 -23 10 -26 6 -3 10 3 10 14 0 11 -4 23 -10 26
-5 3 -10 -3 -10 -14z"/>
<path d="M4897 2963 c-11 -11 -8 -65 3 -58 6 4 9 20 8 36 -3 32 -2 32 -11 22z"/>
<path d="M4381 2934 c0 -11 3 -14 6 -6 3 7 2 16 -1 19 -3 4 -6 -2 -5 -13z"/>
<path d="M1761 2904 c0 -11 3 -14 6 -6 3 7 2 16 -1 19 -3 4 -6 -2 -5 -13z"/>
<path d="M4170 2878 c0 -25 3 -29 10 -18 13 20 13 50 0 50 -5 0 -10 -15 -10
-32z"/>
<path d="M4742 2880 c0 -14 2 -19 5 -12 2 6 2 18 0 25 -3 6 -5 1 -5 -13z"/>
<path d="M4721 2865 c0 -11 4 -27 9 -35 9 -13 10 -13 9 0 0 8 -4 24 -9 35 l-9
20 0 -20z"/>
<path d="M1651 2860 c-1 -8 -4 -31 -6 -50 -2 -19 -9 -73 -16 -120 -6 -47 -13
-97 -14 -111 -1 -14 -5 -31 -9 -38 -4 -6 -9 -36 -11 -67 -3 -46 0 -58 18 -74
13 -13 23 -16 27 -9 4 6 13 11 21 12 8 2 21 7 29 12 13 8 13 7 0 -9 -8 -10
-15 -27 -17 -38 -2 -16 1 -19 14 -14 10 3 5 -3 -10 -15 -28 -21 -71 -93 -65
-109 2 -5 43 30 91 77 85 82 102 107 58 83 -12 -6 -21 -8 -21 -6 0 3 14 12 30
21 29 15 43 55 20 55 -7 0 -7 6 0 20 11 21 6 110 -11 180 -5 25 -10 73 -9 108
1 83 -15 72 -24 -15 -3 -37 -9 -78 -12 -90 -6 -21 -6 -21 -25 -2 -15 15 -20
36 -22 78 -1 32 -7 64 -14 72 -6 8 -13 25 -16 39 -2 14 -5 18 -6 10z m56 -252
c-3 -8 -6 -5 -6 6 -1 11 2 17 5 13 3 -3 4 -12 1 -19z m5 -90 l-11 -33 2 43 c0
27 4 39 11 32 6 -6 5 -21 -2 -42z m-9 -68 c-3 -11 -7 -20 -9 -20 -2 0 -4 9 -4
20 0 11 4 20 9 20 5 0 7 -9 4 -20z"/>
<path d="M1761 2854 c0 -11 3 -14 6 -6 3 7 2 16 -1 19 -3 4 -6 -2 -5 -13z"/>
<path d="M2648 2833 c7 -3 16 -2 19 1 4 3 -2 6 -13 5 -11 0 -14 -3 -6 -6z"/>
<path d="M4231 2824 c0 -11 3 -14 6 -6 3 7 2 16 -1 19 -3 4 -6 -2 -5 -13z"/>
<path d="M2515 2820 c3 -5 8 -10 11 -10 2 0 4 5 4 10 0 6 -5 10 -11 10 -5 0
-7 -4 -4 -10z"/>
<path d="M4740 2770 c0 -5 5 -10 10 -10 6 0 10 5 10 10 0 6 -4 10 -10 10 -5 0
-10 -4 -10 -10z"/>
<path d="M2471 2754 c0 -11 3 -14 6 -6 3 7 2 16 -1 19 -3 4 -6 -2 -5 -13z"/>
<path d="M2605 2720 c-3 -5 -1 -10 4 -10 6 0 11 5 11 10 0 6 -2 10 -4 10 -3 0
-8 -4 -11 -10z"/>
<path d="M4352 2680 c0 -14 2 -19 5 -12 2 6 2 18 0 25 -3 6 -5 1 -5 -13z"/>
<path d="M4770 2641 c0 -5 5 -13 10 -16 6 -3 10 -2 10 4 0 5 -4 13 -10 16 -5
3 -10 2 -10 -4z"/>
<path d="M4337 2622 c-10 -11 -14 -26 -10 -40 3 -15 1 -22 -8 -22 -10 -1 -9
-3 3 -10 12 -8 15 -20 11 -52 -3 -32 -2 -39 6 -28 9 12 11 10 11 -12 0 -31 3
-33 31 -17 18 9 19 8 13 -17 -6 -23 -4 -26 10 -21 10 4 19 1 23 -8 4 -12 9
-13 19 -4 11 9 14 5 14 -22 0 -31 1 -32 14 -13 14 19 15 19 29 0 10 -14 16
-16 21 -7 5 7 5 15 2 18 -8 9 13 43 27 43 15 0 15 52 0 57 -6 2 -9 13 -6 24 3
10 0 26 -7 34 -6 8 -9 19 -5 25 11 17 -5 32 -21 19 -11 -9 -14 -8 -14 5 0 12
-8 16 -31 14 -20 -2 -34 3 -40 14 -5 10 -18 15 -29 13 -13 -2 -20 2 -20 11 0
20 -24 18 -43 -4z m180 -214 c-3 -8 -6 -5 -6 6 -1 11 2 17 5 13 3 -3 4 -12 1
-19z"/>
<path d="M2625 2510 c3 -5 8 -10 11 -10 2 0 4 5 4 10 0 6 -5 10 -11 10 -5 0
-7 -4 -4 -10z"/>
<path d="M1975 2430 c-3 -5 -2 -10 4 -10 5 0 13 5 16 10 3 6 2 10 -4 10 -5 0
-13 -4 -16 -10z"/>
<path d="M2570 2400 c6 -11 13 -20 16 -20 3 0 2 5 -1 10 -3 6 -1 10 5 10 6 0
8 5 5 10 -3 6 -13 10 -21 10 -12 0 -12 -4 -4 -20z"/>
<path d="M2636 2392 c-3 -5 1 -9 9 -9 8 0 12 4 9 9 -3 4 -7 8 -9 8 -2 0 -6 -4
-9 -8z"/>
<path d="M2530 2316 c0 -8 10 -22 22 -30 30 -22 48 -3 23 24 -21 23 -45 26
-45 6z"/>
<path d="M4410 2304 c0 -8 5 -12 10 -9 6 4 8 11 5 16 -9 14 -15 11 -15 -7z"/>
<path d="M1964 2295 c-10 -8 -14 -15 -8 -15 5 0 19 7 30 15 10 8 14 15 8 15
-5 0 -19 -7 -30 -15z"/>
<path d="M2655 2241 c-6 -11 9 -23 19 -14 9 9 7 23 -3 23 -6 0 -12 -4 -16 -9z"/>
<path d="M4600 2235 c0 -8 4 -15 10 -15 5 0 7 7 4 15 -4 8 -8 15 -10 15 -2 0
-4 -7 -4 -15z"/>
<path d="M3307 2192 c-3 -4 3 -13 14 -20 10 -7 19 -8 19 -3 0 13 -28 33 -33
23z"/>
<path d="M2850 2160 c0 -5 5 -10 11 -10 5 0 7 5 4 10 -3 6 -8 10 -11 10 -2 0
-4 -4 -4 -10z"/>
<path d="M1920 2141 c0 -6 5 -13 10 -16 6 -3 10 1 10 9 0 9 -4 16 -10 16 -5 0
-10 -4 -10 -9z"/>
<path d="M3536 2141 c-3 -4 1 -17 8 -27 13 -17 14 -17 9 9 -6 29 -9 32 -17 18z"/>
<path d="M2776 2093 c-6 -14 -5 -15 5 -6 7 7 10 15 7 18 -3 3 -9 -2 -12 -12z"/>
<path d="M3794 2062 c9 -15 48 -23 43 -9 -2 7 -14 14 -26 15 -13 2 -21 -1 -17
-6z"/>
<path d="M2807 2049 c7 -7 15 -10 18 -7 3 3 -2 9 -12 12 -14 6 -15 5 -6 -5z"/>
<path d="M3152 2029 c-15 -24 -15 -24 16 -33 13 -5 22 -3 22 3 0 6 -7 11 -16
11 -8 0 -12 5 -9 10 4 6 11 7 17 4 6 -4 9 -1 6 6 -7 22 -22 21 -36 -1z"/>
<path d="M2885 2020 c3 -5 14 -10 23 -10 15 0 15 2 2 10 -20 13 -33 13 -25 0z"/>
<path d="M3124 2001 c7 -10 3 -12 -14 -6 -26 8 -20 -9 10 -25 24 -13 35 13 12
32 -13 11 -14 11 -8 -1z"/>
<path d="M1880 1954 c0 -8 5 -12 10 -9 6 3 10 10 10 16 0 5 -4 9 -10 9 -5 0
-10 -7 -10 -16z"/>
<path d="M1910 1946 c0 -8 4 -17 9 -20 5 -4 7 3 4 14 -6 23 -13 26 -13 6z"/>
<path d="M3080 1952 c0 -12 19 -26 26 -19 2 2 -2 10 -11 17 -9 8 -15 8 -15 2z"/>
<path d="M4492 1914 c-15 -17 -15 -31 0 -36 7 -3 13 -28 14 -62 1 -31 8 -63
14 -72 10 -11 10 -18 -4 -32 -9 -10 -16 -26 -16 -36 0 -9 -7 -19 -15 -22 -8
-4 -13 -10 -10 -15 3 -4 -5 -15 -18 -24 -15 -9 -23 -24 -22 -38 1 -12 -2 -27
-7 -34 -5 -7 -7 -17 -3 -23 3 -5 -1 -13 -9 -16 -8 -3 -27 -26 -41 -50 -14 -24
-30 -44 -35 -44 -19 0 -10 -21 12 -29 22 -8 22 -8 -5 -25 -28 -19 -60 -73 -51
-87 3 -5 -2 -9 -10 -9 -9 0 -16 -7 -16 -15 0 -9 -12 -18 -30 -21 -16 -4 -30
-13 -30 -20 0 -8 -5 -14 -11 -14 -8 0 -9 -4 0 -13 14 -18 2 -30 -16 -16 -10 9
-13 7 -13 -11 0 -13 -3 -21 -6 -17 -4 3 -20 -1 -37 -9 -24 -13 -31 -14 -38 -2
-7 10 -13 8 -31 -9 -19 -19 -20 -23 -5 -28 18 -7 12 -33 -12 -53 -15 -11 -14
-12 0 -7 10 4 16 0 16 -12 0 -10 -3 -20 -6 -23 -3 -3 -12 -16 -19 -28 -12 -22
-12 -23 10 -17 22 6 21 5 -4 -17 -31 -26 -37 -58 -12 -58 8 0 12 -4 9 -10 -3
-5 -1 -10 5 -10 7 0 10 -7 7 -14 -4 -11 -1 -13 11 -9 15 6 15 5 3 -11 -18 -22
-23 -66 -8 -66 7 -1 -1 -12 -18 -26 l-30 -26 28 6 c26 6 27 5 17 -15 -7 -13
-8 -19 -2 -15 6 4 14 0 19 -8 7 -12 13 -12 43 0 26 11 31 17 21 24 -12 7 -10
15 8 46 16 27 19 39 10 44 -8 6 -5 11 10 20 12 6 26 23 32 37 5 14 18 27 29
30 11 3 20 10 20 17 1 6 23 40 50 76 28 36 50 70 50 77 0 7 7 10 15 7 11 -5
13 -2 9 10 -4 9 -1 16 6 16 7 0 10 7 6 16 -3 9 2 28 13 42 10 15 26 51 35 79
10 29 24 56 31 60 8 5 14 11 14 16 -1 25 17 80 42 132 16 33 29 70 29 82 0 34
10 52 26 46 17 -6 18 1 3 25 -8 12 -6 26 5 52 8 19 15 29 16 23 0 -13 41 -18
52 -7 4 3 -20 57 -53 119 -32 63 -59 120 -59 127 0 7 -6 20 -13 29 -10 14 -14
14 -25 3z m117 -227 c12 -15 5 -27 -16 -27 -7 0 -13 9 -13 20 0 23 13 26 29 7z"/>
<path d="M1920 1900 c0 -7 -6 -18 -14 -24 -8 -6 -17 -22 -21 -36 l-7 -25 20
24 c24 26 37 59 28 68 -3 4 -6 0 -6 -7z"/>
<path d="M3755 1899 c-9 -13 0 -22 25 -24 15 -1 17 2 9 17 -11 20 -25 23 -34
7z"/>
<path d="M3737 1859 c7 -7 15 -10 18 -7 3 3 -2 9 -12 12 -14 6 -15 5 -6 -5z"/>
<path d="M3540 1839 c0 -11 5 -17 10 -14 6 3 10 13 10 21 0 8 -4 14 -10 14 -5
0 -10 -9 -10 -21z"/>
<path d="M4150 1643 c0 -5 -45 -55 -100 -113 -55 -57 -102 -110 -105 -118 -3
-8 -14 -16 -24 -19 -11 -3 -18 -10 -15 -17 3 -7 -7 -18 -20 -24 -17 -7 -24
-17 -20 -27 4 -9 1 -15 -7 -15 -11 0 -11 -3 1 -10 13 -8 13 -11 1 -19 -8 -5
-11 -16 -8 -25 4 -9 2 -16 -3 -16 -6 0 -10 -7 -10 -15 0 -8 -5 -15 -12 -15 -8
0 -6 -6 5 -17 16 -16 18 -15 45 10 15 15 32 27 36 27 4 0 14 7 22 15 22 21 37
19 31 -5 -7 -29 10 -35 24 -8 7 13 15 25 19 28 21 17 73 141 77 185 3 40 14
64 53 122 28 39 50 74 50 77 0 3 -9 6 -20 6 -11 0 -20 -3 -20 -7z"/>
<path d="M3485 1600 c3 -5 8 -10 11 -10 2 0 4 5 4 10 0 6 -5 10 -11 10 -5 0
-7 -4 -4 -10z"/>
<path d="M2724 1389 c-3 -5 -10 -7 -15 -4 -11 7 -12 -15 -1 -31 4 -6 17 -14
30 -18 18 -6 22 -4 22 15 0 18 2 19 15 9 13 -11 14 -10 10 1 -7 19 -53 40 -61
28z"/>
<path d="M2450 1379 c0 -6 -4 -7 -10 -4 -13 8 -13 2 2 -30 6 -14 15 -26 20
-26 27 -5 33 -1 33 23 1 15 -3 24 -7 22 -4 -3 -8 -1 -8 4 0 6 -7 12 -15 16 -8
3 -15 1 -15 -5z"/>
<path d="M2660 1374 c0 -9 -5 -12 -12 -8 -7 5 -41 9 -76 9 l-63 2 3 -31 c3
-31 4 -31 61 -32 50 0 58 2 54 17 -4 14 1 16 34 12 42 -6 45 -3 29 28 -13 23
-30 25 -30 3z m-80 -39 c0 -5 -5 -3 -10 5 -5 8 -10 20 -10 25 0 6 5 3 10 -5 5
-8 10 -19 10 -25z"/>
<path d="M2266 1362 c-3 -5 1 -9 9 -9 8 0 12 4 9 9 -3 4 -7 8 -9 8 -2 0 -6 -4
-9 -8z"/>
<path d="M2835 1319 c4 -21 21 -39 38 -39 10 0 -8 33 -27 49 -13 11 -15 9 -11
-10z"/>
<path d="M2905 1330 c3 -5 11 -10 16 -10 6 0 7 5 4 10 -3 6 -11 10 -16 10 -6
0 -7 -4 -4 -10z"/>
<path d="M2800 1318 c0 -9 5 -20 10 -23 13 -8 13 5 0 25 -8 13 -10 13 -10 -2z"/>
<path d="M2231 1304 c0 -11 3 -14 6 -6 3 7 2 16 -1 19 -3 4 -6 -2 -5 -13z"/>
<path d="M2356 1215 c-4 -11 3 -28 19 -47 17 -21 24 -37 20 -52 -5 -17 -4 -18
4 -6 9 13 11 12 11 -3 0 -12 6 -17 18 -15 12 2 18 14 20 38 3 48 -17 85 -48
85 -14 0 -28 4 -31 8 -3 5 -9 1 -13 -8z"/>
<path d="M5334 923 c-3 -10 -10 -25 -15 -33 -16 -25 -49 -100 -55 -125 -4 -18
-2 -23 13 -22 13 2 23 18 34 57 9 30 21 54 27 53 6 -1 13 16 17 38 6 34 10 40
26 36 10 -3 19 -1 19 4 0 18 -60 10 -66 -8z"/>
<path d="M5872 751 c4 -13 18 -16 19 -4 0 4 -5 9 -11 12 -7 2 -11 -2 -8 -8z"/>
<path d="M5910 726 c0 -9 32 -36 41 -36 6 0 5 8 -1 20 -9 17 -40 29 -40 16z"/>
<path d="M5222 678 c-14 -14 -16 -28 -3 -28 9 0 24 30 18 36 -2 2 -9 -2 -15
-8z"/>
<path d="M4046 618 c-19 -11 -21 -28 -3 -28 8 0 14 -7 14 -15 0 -8 -9 -15 -19
-15 -10 0 -18 -4 -18 -10 0 -17 67 -12 74 6 3 8 2 12 -4 9 -6 -3 -10 0 -10 8
0 8 7 17 15 21 8 3 15 9 15 15 0 13 -45 19 -64 9z"/>
<path d="M5985 500 c3 -5 8 -10 11 -10 2 0 4 5 4 10 0 6 -5 10 -11 10 -5 0 -7
-4 -4 -10z"/>
<path d="M5928 483 c7 -3 16 -2 19 1 4 3 -2 6 -13 5 -11 0 -14 -3 -6 -6z"/>
<path d="M3900 451 c0 -5 -8 -12 -18 -15 -11 -4 -25 -19 -33 -34 -16 -31 -48
-61 -66 -62 -20 0 -15 -12 13 -35 l26 -21 -67 4 c-42 3 -71 0 -78 -7 -9 -9 -4
-10 20 -5 18 3 33 2 37 -5 4 -6 19 -11 34 -12 21 0 23 -2 9 -8 -15 -5 -12 -9
18 -21 52 -20 88 -99 52 -113 -9 -3 -12 -17 -10 -39 9 -78 9 -78 61 -78 41 0
49 3 60 27 6 15 12 38 12 52 0 15 7 39 16 56 11 21 13 44 9 80 -8 69 -27 147
-38 163 -7 8 -6 17 1 24 14 14 -2 38 -27 39 -12 0 -11 2 4 9 18 8 17 9 -7 9
-16 1 -28 -3 -28 -8z"/>
<path d="M6000 450 c0 -5 5 -10 11 -10 5 0 7 5 4 10 -3 6 -8 10 -11 10 -2 0
-4 -4 -4 -10z"/>
<path d="M5960 421 c0 -6 9 -15 20 -21 11 -6 20 -15 20 -20 0 -6 -9 -10 -20
-10 -11 0 -20 -5 -20 -10 0 -15 29 -25 40 -14 13 13 17 58 5 62 -5 2 -18 8
-27 13 -12 6 -18 6 -18 0z"/>
<path d="M6000 332 c0 -5 9 -12 21 -15 13 -3 19 -1 16 6 -5 15 -37 22 -37 9z"/>
<path d="M2775 259 c-9 -17 -14 -37 -11 -45 6 -17 36 -7 36 12 0 8 6 14 14 14
21 0 31 21 16 30 -7 5 -20 6 -28 2 -10 -3 -13 -1 -8 6 4 7 5 12 2 12 -3 0 -13
-14 -21 -31z"/>
<path d="M2825 201 c-3 -11 -13 -21 -21 -21 -8 0 -14 -4 -14 -8 0 -4 -14 -16
-32 -26 l-31 -19 30 -27 c25 -23 28 -28 15 -37 -10 -6 -12 -12 -5 -16 6 -4 24
7 42 23 17 17 36 30 42 30 6 0 9 6 7 12 -3 7 1 19 9 26 7 7 13 20 13 28 0 10
-5 9 -20 -6 -11 -11 -26 -20 -32 -20 -8 1 -6 6 5 14 19 14 22 33 8 55 -7 11
-10 9 -16 -8z"/>
<path d="M2891 174 c0 -11 3 -14 6 -6 3 7 2 16 -1 19 -3 4 -6 -2 -5 -13z"/>
<path d="M5910 115 c7 -8 17 -15 22 -15 5 0 3 7 -6 15 -8 8 -18 15 -22 15 -3
0 -1 -7 6 -15z"/>
<path d="M2877 96 c-3 -8 -24 -24 -46 -36 -22 -11 -45 -29 -51 -40 -10 -18 -8
-20 29 -20 32 0 41 4 46 23 4 12 17 32 28 45 15 15 18 25 10 33 -7 7 -12 6
-16 -5z"/>
<path d="M5990 40 c0 -5 5 -10 10 -10 6 0 10 5 10 10 0 6 -4 10 -10 10 -5 0
-10 -4 -10 -10z"/>
<path d="M3400 25 c-16 -19 0 -19 26 0 16 12 16 14 3 15 -9 0 -22 -7 -29 -15z"/>
</g>
</svg>
